0, 0, Header, 1, 1, 480
1, 0, Start_track
1, 0, Title_t, "SOS by ABBA"
1, 0, Program_c, 1, 27
1, 0, Tempo, 545454
1, 0, Time_signature, 4, 2, 24, 8
1, 0, Note_on_c, 1, 69, 80
1, 0, Note_on_c, 1, 65, 80
1, 240, Note_off_c, 1, 69, 64
1, 240, Note_off_c, 1, 65, 64
1, 240, Note_on_c, 1, 65, 80
1, 240, Note_on_c, 1, 69, 80
1, 480, Note_off_c, 1, 65, 64
1, 480, Note_off_c, 1, 69, 64
1, 480, Note_on_c, 1, 67, 80
1, 480, Note_on_c, 1, 64, 80
1, 720, Note_off_c, 1, 67, 64
1, 720, Note_off_c, 1, 64, 64
1, 720, Note_on_c, 1, 64, 80
1, 720, Note_on_c, 1, 67, 80
1, 960, Note_off_c, 1, 64, 64
1, 960, Note_off_c, 1, 67, 64
1, 960, Note_on_c, 1, 65, 80
1, 960, Note_on_c, 1, 62, 80
1, 1920, Note_off_c, 1, 65, 64
1, 1920, Note_off_c, 1, 62, 64
1, 1920, Note_on_c, 1, 65, 80
1, 1920, Note_on_c, 1, 62, 80
1, 2160, Note_off_c, 1, 65, 64
1, 2160, Note_off_c, 1, 62, 64
1, 2160, Note_on_c, 1, 62, 80
1, 2160, Note_on_c, 1, 65, 80
1, 2400, Note_off_c, 1, 62, 64
1, 2400, Note_off_c, 1, 65, 64
1, 2400, Note_on_c, 1, 64, 80
1, 2400, Note_on_c, 1, 60, 80
1, 2640, Note_off_c, 1, 64, 64
1, 2640, Note_off_c, 1, 60, 64
1, 2640, Note_on_c, 1, 60, 80
1, 2640, Note_on_c, 1, 64, 80
1, 2880, Note_off_c, 1, 60, 64
1, 2880, Note_off_c, 1, 64, 64
1, 2880, Note_on_c, 1, 58, 80
1, 2880, Note_on_c, 1, 62, 80
1, 3840, Time_signature, 3, 2, 24, 8
1, 3840, Note_off_c, 1, 58, 64
1, 3840, Note_off_c, 1, 62, 64
1, 3840, Note_on_c, 1, 62, 80
1, 3840, Note_on_c, 1, 58, 80
1, 4080, Note_off_c, 1, 62, 64
1, 4080, Note_off_c, 1, 58, 64
1, 4080, Note_on_c, 1, 58, 80
1, 4080, Note_on_c, 1, 62, 80
1, 4320, Note_off_c, 1, 58, 64
1, 4320, Note_off_c, 1, 62, 64
1, 4320, Note_on_c, 1, 60, 80
1, 4320, Note_on_c, 1, 57, 80
1, 4560, Note_off_c, 1, 60, 64
1, 4560, Note_off_c, 1, 57, 64
1, 4560, Note_on_c, 1, 57, 80
1, 4560, Note_on_c, 1, 60, 80
1, 4800, Note_off_c, 1, 57, 64
1, 4800, Note_off_c, 1, 60, 64
1, 4800, Note_on_c, 1, 55, 80
1, 4800, Note_on_c, 1, 58, 80
1, 5040, Note_off_c, 1, 55, 64
1, 5040, Note_off_c, 1, 58, 64
1, 5040, Note_on_c, 1, 55, 80
1, 5040, Note_on_c, 1, 58, 80
1, 5280, Time_signature, 4, 2, 24, 8
1, 5280, Note_off_c, 1, 55, 64
1, 5280, Note_off_c, 1, 58, 64
1, 5280, Note_on_c, 1, 57, 80
1, 5760, Note_off_c, 1, 57, 64
1, 5760, Note_on_c, 1, 65, 80
1, 6000, Note_off_c, 1, 65, 64
1, 6000, Note_on_c, 1, 57, 80
1, 6240, Note_off_c, 1, 57, 64
1, 6240, Note_on_c, 1, 58, 80
1, 6480, Note_off_c, 1, 58, 64
1, 6480, Note_on_c, 1, 65, 80
1, 6720, Note_off_c, 1, 65, 64
1, 6720, Note_on_c, 1, 58, 80
1, 7200, Note_off_c, 1, 58, 64
1, 7200, Note_on_c, 1, 69, 80
1, 7440, Note_off_c, 1, 69, 64
1, 7440, Note_on_c, 1, 67, 80
1, 7680, Note_off_c, 1, 67, 64
1, 7680, Note_on_c, 1, 65, 80
1, 7920, Note_off_c, 1, 65, 64
1, 7920, Note_on_c, 1, 64, 80
1, 8160, Note_off_c, 1, 64, 64
1, 8160, Note_on_c, 1, 65, 80
1, 8400, Note_off_c, 1, 65, 64
1, 8400, Note_on_c, 1, 62, 80
1, 8640, Note_off_c, 1, 62, 64
1, 8640, Note_on_c, 1, 64, 80
1, 8880, Note_off_c, 1, 64, 64
1, 8880, Note_on_c, 1, 67, 80
1, 9120, Note_off_c, 1, 67, 64
1, 9120, Note_on_c, 1, 65, 80
1, 9360, Note_off_c, 1, 65, 64
1, 9360, Note_on_c, 1, 64, 80
1, 9600, Note_off_c, 1, 64, 64
1, 9600, Note_on_c, 1, 62, 80
1, 9840, Note_off_c, 1, 62, 64
1, 9840, Note_on_c, 1, 60, 80
1, 10080, Note_off_c, 1, 60, 64
1, 10080, Note_on_c, 1, 58, 80
1, 10320, Note_off_c, 1, 58, 64
1, 10320, Note_on_c, 1, 62, 80
1, 10560, Note_off_c, 1, 62, 64
1, 10560, Note_on_c, 1, 65, 80
1, 10800, Note_off_c, 1, 65, 64
1, 10800, Note_on_c, 1, 67, 80
1, 11040, Time_signature, 3, 2, 24, 8
1, 11040, Note_off_c, 1, 67, 64
1, 11040, Note_on_c, 1, 65, 80
1, 11280, Note_off_c, 1, 65, 64
1, 11280, Note_on_c, 1, 64, 80
1, 11520, Note_off_c, 1, 64, 64
1, 11520, Note_on_c, 1, 62, 80
1, 11760, Note_off_c, 1, 62, 64
1, 11760, Note_on_c, 1, 60, 80
1, 12000, Note_off_c, 1, 60, 64
1, 12000, Note_on_c, 1, 58, 80
1, 12240, Note_off_c, 1, 58, 64
1, 12240, Note_on_c, 1, 57, 80
1, 12480, Time_signature, 4, 2, 24, 8
1, 12480, Note_off_c, 1, 57, 64
1, 12480, Note_on_c, 1, 50, 80
1, 12960, Note_off_c, 1, 50, 64
1, 12960, Note_on_c, 1, 65, 80
1, 13200, Note_off_c, 1, 65, 64
1, 13200, Note_on_c, 1, 57, 80
1, 13440, Note_off_c, 1, 57, 64
1, 13440, Note_on_c, 1, 58, 80
1, 13680, Note_off_c, 1, 58, 64
1, 13680, Note_on_c, 1, 65, 80
1, 13920, Note_off_c, 1, 65, 64
1, 13920, Note_on_c, 1, 58, 80
1, 14400, Note_off_c, 1, 58, 64
1, 14400, Note_on_c, 1, 50, 80
1, 14640, Note_off_c, 1, 50, 64
1, 14640, Note_on_c, 1, 53, 80
1, 14880, Note_off_c, 1, 53, 64
1, 14880, Note_on_c, 1, 53, 80
1, 15120, Note_off_c, 1, 53, 64
1, 15120, Note_on_c, 1, 50, 80
1, 15360, Note_off_c, 1, 50, 64
1, 15360, Note_on_c, 1, 53, 80
1, 15840, Note_off_c, 1, 53, 64
1, 15840, Note_on_c, 1, 50, 80
1, 16080, Note_off_c, 1, 50, 64
1, 16080, Note_on_c, 1, 49, 80
1, 16320, Note_off_c, 1, 49, 64
1, 16560, Note_on_c, 1, 55, 80
1, 16800, Note_off_c, 1, 55, 64
1, 16800, Note_on_c, 1, 55, 80
1, 17040, Note_off_c, 1, 55, 64
1, 17040, Note_on_c, 1, 49, 80
1, 17280, Note_off_c, 1, 49, 64
1, 17280, Note_on_c, 1, 55, 80
1, 17760, Note_off_c, 1, 55, 64
1, 17760, Note_on_c, 1, 52, 80
1, 18000, Note_off_c, 1, 52, 64
1, 18000, Note_on_c, 1, 53, 80
1, 18240, Note_off_c, 1, 53, 64
1, 18240, Note_on_c, 1, 65, 80
1, 18720, Note_off_c, 1, 65, 64
1, 18720, Note_on_c, 1, 64, 80
1, 19200, Note_off_c, 1, 64, 64
1, 19200, Note_on_c, 1, 57, 80
1, 20160, Note_off_c, 1, 57, 64
1, 20160, Note_on_c, 1, 50, 80
1, 20400, Note_off_c, 1, 50, 64
1, 20400, Note_on_c, 1, 53, 80
1, 20640, Note_off_c, 1, 53, 64
1, 20640, Note_on_c, 1, 53, 80
1, 20880, Note_off_c, 1, 53, 64
1, 20880, Note_on_c, 1, 50, 80
1, 21120, Note_off_c, 1, 50, 64
1, 21120, Note_on_c, 1, 55, 80
1, 21360, Note_off_c, 1, 55, 64
1, 21360, Note_on_c, 1, 53, 80
1, 21600, Note_off_c, 1, 53, 64
1, 21600, Note_on_c, 1, 50, 80
1, 21840, Note_off_c, 1, 50, 64
1, 21840, Note_on_c, 1, 49, 80
1, 22080, Note_off_c, 1, 49, 64
1, 22320, Note_on_c, 1, 52, 80
1, 22560, Note_off_c, 1, 52, 64
1, 22560, Note_on_c, 1, 52, 80
1, 22800, Note_off_c, 1, 52, 64
1, 22800, Note_on_c, 1, 49, 80
1, 23040, Note_off_c, 1, 49, 64
1, 23040, Note_on_c, 1, 55, 80
1, 23280, Note_off_c, 1, 55, 64
1, 23280, Note_on_c, 1, 52, 80
1, 23520, Note_off_c, 1, 52, 64
1, 23520, Note_on_c, 1, 49, 80
1, 24000, Note_off_c, 1, 49, 64
1, 24000, Note_on_c, 1, 50, 80
1, 24480, Note_off_c, 1, 50, 64
1, 24480, Note_on_c, 1, 52, 80
1, 24960, Note_off_c, 1, 52, 64
1, 24960, Note_on_c, 1, 53, 80
1, 25440, Note_off_c, 1, 53, 64
1, 25440, Note_on_c, 1, 55, 80
1, 25920, Note_off_c, 1, 55, 64
1, 25920, Note_on_c, 1, 53, 80
1, 26160, Note_off_c, 1, 53, 64
1, 26160, Note_on_c, 1, 60, 80
1, 26400, Note_off_c, 1, 60, 64
1, 26400, Note_on_c, 1, 69, 80
1, 26640, Note_off_c, 1, 69, 64
1, 26640, Note_on_c, 1, 69, 80
1, 26880, Note_off_c, 1, 69, 64
1, 26880, Note_on_c, 1, 69, 80
1, 27360, Note_off_c, 1, 69, 64
1, 27360, Note_on_c, 1, 60, 80
1, 27600, Note_off_c, 1, 60, 64
1, 27600, Note_on_c, 1, 69, 80
1, 27840, Note_off_c, 1, 69, 64
1, 28080, Note_on_c, 1, 67, 80
1, 28320, Note_off_c, 1, 67, 64
1, 28320, Note_on_c, 1, 48, 80
1, 29760, Note_off_c, 1, 48, 64
1, 29760, Note_on_c, 1, 55, 80
1, 30000, Note_off_c, 1, 55, 64
1, 30000, Note_on_c, 1, 58, 80
1, 30240, Note_off_c, 1, 58, 64
1, 30240, Note_on_c, 1, 67, 80
1, 30480, Note_off_c, 1, 67, 64
1, 30480, Note_on_c, 1, 67, 80
1, 30720, Note_off_c, 1, 67, 64
1, 30720, Note_on_c, 1, 67, 80
1, 31200, Note_off_c, 1, 67, 64
1, 31200, Note_on_c, 1, 65, 80
1, 31440, Note_off_c, 1, 65, 64
1, 31440, Note_on_c, 1, 62, 80
1, 31680, Note_off_c, 1, 62, 64
1, 32160, Note_on_c, 1, 57, 80
1, 32640, Note_off_c, 1, 57, 64
1, 32640, Note_on_c, 1, 65, 80
1, 33120, Note_off_c, 1, 65, 64
1, 33120, Note_on_c, 1, 64, 80
1, 33600, Note_off_c, 1, 64, 64
1, 33600, Note_on_c, 1, 62, 80
1, 33840, Note_off_c, 1, 62, 64
1, 33840, Note_on_c, 1, 50, 80
1, 34080, Note_off_c, 1, 50, 64
1, 34080, Note_on_c, 1, 53, 80
1, 34320, Note_off_c, 1, 53, 64
1, 34320, Note_on_c, 1, 53, 80
1, 34560, Note_off_c, 1, 53, 64
1, 34560, Note_on_c, 1, 53, 80
1, 35040, Note_off_c, 1, 53, 64
1, 35040, Note_on_c, 1, 52, 80
1, 35280, Note_off_c, 1, 52, 64
1, 35280, Note_on_c, 1, 49, 80
1, 35520, Note_off_c, 1, 49, 64
1, 35760, Note_on_c, 1, 55, 80
1, 36000, Note_off_c, 1, 55, 64
1, 36000, Note_on_c, 1, 55, 80
1, 36240, Note_off_c, 1, 55, 64
1, 36240, Note_on_c, 1, 55, 80
1, 36480, Note_off_c, 1, 55, 64
1, 36480, Note_on_c, 1, 55, 80
1, 36960, Note_off_c, 1, 55, 64
1, 36960, Note_on_c, 1, 52, 80
1, 37440, Note_off_c, 1, 52, 64
1, 37440, Note_on_c, 1, 50, 80
1, 37920, Note_off_c, 1, 50, 64
1, 37920, Note_on_c, 1, 52, 80
1, 38400, Note_off_c, 1, 52, 64
1, 38400, Note_on_c, 1, 53, 80
1, 38880, Note_off_c, 1, 53, 64
1, 38880, Note_on_c, 1, 55, 80
1, 39360, Note_off_c, 1, 55, 64
1, 39360, Note_on_c, 1, 53, 80
1, 39600, Note_off_c, 1, 53, 64
1, 39600, Note_on_c, 1, 60, 80
1, 39840, Note_off_c, 1, 60, 64
1, 39840, Note_on_c, 1, 69, 80
1, 40080, Note_off_c, 1, 69, 64
1, 40080, Note_on_c, 1, 48, 80
1, 40320, Note_off_c, 1, 48, 64
1, 40320, Note_on_c, 1, 69, 80
1, 40560, Note_off_c, 1, 69, 64
1, 40560, Note_on_c, 1, 67, 80
1, 40800, Note_off_c, 1, 67, 64
1, 41280, Note_on_c, 1, 55, 80
1, 41520, Note_off_c, 1, 55, 64
1, 41520, Note_on_c, 1, 58, 80
1, 41760, Note_off_c, 1, 58, 64
1, 41760, Note_on_c, 1, 67, 80
1, 42000, Note_off_c, 1, 67, 64
1, 42000, Note_on_c, 1, 46, 80
1, 42240, Note_off_c, 1, 46, 64
1, 42240, Note_on_c, 1, 67, 80
1, 42480, Note_off_c, 1, 67, 64
1, 42480, Note_on_c, 1, 65, 80
1, 42720, Note_off_c, 1, 65, 64
1, 43200, Note_on_c, 1, 69, 80
1, 43440, Note_off_c, 1, 69, 64
1, 43440, Note_on_c, 1, 53, 80
1, 43680, Note_off_c, 1, 53, 64
1, 43680, Note_on_c, 1, 67, 80
1, 43920, Note_off_c, 1, 67, 64
1, 43920, Note_on_c, 1, 65, 80
1, 44160, Note_off_c, 1, 65, 64
1, 44160, Note_on_c, 1, 58, 80
1, 44400, Note_off_c, 1, 58, 64
1, 44400, Note_on_c, 1, 60, 80
1, 44640, Note_off_c, 1, 60, 64
1, 44640, Note_on_c, 1, 62, 80
1, 44880, Note_off_c, 1, 62, 64
1, 44880, Note_on_c, 1, 69, 80
1, 45120, Note_off_c, 1, 69, 64
1, 45360, Note_on_c, 1, 53, 80
1, 45600, Note_off_c, 1, 53, 64
1, 45600, Note_on_c, 1, 67, 80
1, 45840, Note_off_c, 1, 67, 64
1, 45840, Note_on_c, 1, 65, 80
1, 46080, Note_off_c, 1, 65, 64
1, 46080, Note_on_c, 1, 58, 80
1, 46320, Note_off_c, 1, 58, 64
1, 46320, Note_on_c, 1, 60, 80
1, 46560, Note_off_c, 1, 60, 64
1, 46560, Note_on_c, 1, 62, 80
1, 47040, Note_off_c, 1, 62, 64
1, 47040, Note_on_c, 1, 53, 80
1, 47280, Note_off_c, 1, 53, 64
1, 47280, Note_on_c, 1, 55, 80
1, 47520, Note_off_c, 1, 55, 64
1, 47520, Note_on_c, 1, 57, 80
1, 48000, Note_off_c, 1, 57, 64
1, 48000, Note_on_c, 1, 57, 80
1, 48240, Note_off_c, 1, 57, 64
1, 48240, Note_on_c, 1, 55, 80
1, 48480, Note_off_c, 1, 55, 64
1, 48480, Note_on_c, 1, 48, 80
1, 48960, Note_off_c, 1, 48, 64
1, 48960, Note_on_c, 1, 43, 80
1, 49200, Note_off_c, 1, 43, 64
1, 49200, Note_on_c, 1, 45, 80
1, 49440, Note_off_c, 1, 45, 64
1, 49440, Note_on_c, 1, 46, 80
1, 49680, Note_off_c, 1, 46, 64
1, 49680, Note_on_c, 1, 48, 80
1, 49920, Note_off_c, 1, 48, 64
1, 49920, Note_on_c, 1, 50, 80
1, 50160, Note_off_c, 1, 50, 64
1, 50160, Note_on_c, 1, 52, 80
1, 50400, Note_off_c, 1, 52, 64
1, 50400, Note_on_c, 1, 53, 80
1, 50640, Note_off_c, 1, 53, 64
1, 50640, Note_on_c, 1, 55, 80
1, 50880, Note_off_c, 1, 55, 64
1, 50880, Note_on_c, 1, 57, 80
1, 51360, Note_off_c, 1, 57, 64
1, 51360, Note_on_c, 1, 65, 80
1, 51600, Note_off_c, 1, 65, 64
1, 51600, Note_on_c, 1, 57, 80
1, 51840, Note_off_c, 1, 57, 64
1, 51840, Note_on_c, 1, 58, 80
1, 52080, Note_off_c, 1, 58, 64
1, 52080, Note_on_c, 1, 65, 80
1, 52320, Note_off_c, 1, 65, 64
1, 52320, Note_on_c, 1, 58, 80
1, 52560, Note_off_c, 1, 58, 64
1, 52560, Note_on_c, 1, 57, 80
1, 52800, Note_off_c, 1, 57, 64
1, 54000, Note_on_c, 1, 56, 80
1, 54240, Note_off_c, 1, 56, 64
1, 54240, Note_on_c, 1, 55, 80
1, 54480, Note_off_c, 1, 55, 64
1, 54480, Note_on_c, 1, 53, 80
1, 54720, Note_off_c, 1, 53, 64
1, 54720, Note_on_c, 1, 46, 80
1, 55200, Note_off_c, 1, 46, 64
1, 55200, Note_on_c, 1, 46, 80
1, 55680, Note_off_c, 1, 46, 64
1, 55680, Note_on_c, 1, 46, 80
1, 55920, Note_off_c, 1, 46, 64
1, 55920, Note_on_c, 1, 56, 80
1, 56160, Note_off_c, 1, 56, 64
1, 56160, Note_on_c, 1, 55, 80
1, 56400, Note_off_c, 1, 55, 64
1, 56400, Note_on_c, 1, 53, 80
1, 56640, Note_off_c, 1, 53, 64
1, 56640, Note_on_c, 1, 49, 80
1, 56880, Note_off_c, 1, 49, 64
1, 56880, Note_on_c, 1, 56, 80
1, 57120, Note_off_c, 1, 56, 64
1, 57120, Note_on_c, 1, 55, 80
1, 57360, Note_off_c, 1, 55, 64
1, 57360, Note_on_c, 1, 53, 80
1, 57600, Note_off_c, 1, 53, 64
1, 57600, Note_on_c, 1, 51, 80
1, 57840, Note_off_c, 1, 51, 64
1, 57840, Note_on_c, 1, 56, 80
1, 58080, Note_off_c, 1, 56, 64
1, 58080, Note_on_c, 1, 55, 80
1, 58320, Note_off_c, 1, 55, 64
1, 58320, Note_on_c, 1, 53, 80
1, 58560, Note_off_c, 1, 53, 64
1, 59040, Note_on_c, 1, 41, 80
1, 59520, Note_off_c, 1, 41, 64
1, 59520, Note_on_c, 1, 43, 80
1, 60000, Note_off_c, 1, 43, 64
1, 60000, Note_on_c, 1, 45, 80
1, 60480, Note_off_c, 1, 45, 64
1, 60480, Note_on_c, 1, 48, 80
1, 60960, Note_off_c, 1, 48, 64
1, 60960, Note_on_c, 1, 50, 80
1, 61440, Note_off_c, 1, 50, 64
1, 61440, Note_on_c, 1, 53, 80
1, 61680, Note_off_c, 1, 53, 64
1, 61680, Note_on_c, 1, 68, 80
1, 61920, Note_off_c, 1, 68, 64
1, 61920, Note_on_c, 1, 67, 80
1, 62160, Note_off_c, 1, 67, 64
1, 62160, Note_on_c, 1, 65, 80
1, 62400, Note_off_c, 1, 65, 64
1, 62400, Note_on_c, 1, 58, 80
1, 62880, Note_off_c, 1, 58, 64
1, 62880, Note_on_c, 1, 62, 80
1, 63360, Note_off_c, 1, 62, 64
1, 63360, Note_on_c, 1, 65, 80
1, 63600, Note_off_c, 1, 65, 64
1, 63600, Note_on_c, 1, 68, 80
1, 63840, Note_off_c, 1, 68, 64
1, 63840, Note_on_c, 1, 67, 80
1, 64080, Note_off_c, 1, 67, 64
1, 64080, Note_on_c, 1, 65, 80
1, 64320, Note_off_c, 1, 65, 64
1, 64320, Note_on_c, 1, 61, 80
1, 64800, Note_off_c, 1, 61, 64
1, 64800, Note_on_c, 1, 65, 80
1, 65280, Note_off_c, 1, 65, 64
1, 65280, Note_on_c, 1, 63, 80
1, 65760, Note_off_c, 1, 63, 64
1, 65760, Note_on_c, 1, 67, 80
1, 66240, Note_off_c, 1, 67, 64
1, 66240, Note_on_c, 1, 69, 80
1, 66240, Note_on_c, 1, 65, 80
1, 66480, Note_off_c, 1, 69, 64
1, 66480, Note_off_c, 1, 65, 64
1, 66480, Note_on_c, 1, 65, 80
1, 66480, Note_on_c, 1, 69, 80
1, 66720, Note_off_c, 1, 65, 64
1, 66720, Note_off_c, 1, 69, 64
1, 66720, Note_on_c, 1, 67, 80
1, 66720, Note_on_c, 1, 64, 80
1, 66960, Note_off_c, 1, 67, 64
1, 66960, Note_off_c, 1, 64, 64
1, 66960, Note_on_c, 1, 64, 80
1, 66960, Note_on_c, 1, 67, 80
1, 67200, Note_off_c, 1, 64, 64
1, 67200, Note_off_c, 1, 67, 64
1, 67200, Note_on_c, 1, 65, 80
1, 67200, Note_on_c, 1, 62, 80
1, 68160, Note_off_c, 1, 65, 64
1, 68160, Note_off_c, 1, 62, 64
1, 68160, Note_on_c, 1, 65, 80
1, 68160, Note_on_c, 1, 62, 80
1, 68400, Note_off_c, 1, 65, 64
1, 68400, Note_off_c, 1, 62, 64
1, 68400, Note_on_c, 1, 62, 80
1, 68400, Note_on_c, 1, 65, 80
1, 68640, Note_off_c, 1, 62, 64
1, 68640, Note_off_c, 1, 65, 64
1, 68640, Note_on_c, 1, 64, 80
1, 68640, Note_on_c, 1, 60, 80
1, 68880, Note_off_c, 1, 64, 64
1, 68880, Note_off_c, 1, 60, 64
1, 68880, Note_on_c, 1, 60, 80
1, 68880, Note_on_c, 1, 64, 80
1, 69120, Note_off_c, 1, 60, 64
1, 69120, Note_off_c, 1, 64, 64
1, 69120, Note_on_c, 1, 58, 80
1, 69120, Note_on_c, 1, 62, 80
1, 70080, Time_signature, 3, 2, 24, 8
1, 70080, Note_off_c, 1, 58, 64
1, 70080, Note_off_c, 1, 62, 64
1, 70080, Note_on_c, 1, 62, 80
1, 70080, Note_on_c, 1, 58, 80
1, 70320, Note_off_c, 1, 62, 64
1, 70320, Note_off_c, 1, 58, 64
1, 70320, Note_on_c, 1, 58, 80
1, 70320, Note_on_c, 1, 62, 80
1, 70560, Note_off_c, 1, 58, 64
1, 70560, Note_off_c, 1, 62, 64
1, 70560, Note_on_c, 1, 60, 80
1, 70560, Note_on_c, 1, 57, 80
1, 70800, Note_off_c, 1, 60, 64
1, 70800, Note_off_c, 1, 57, 64
1, 70800, Note_on_c, 1, 57, 80
1, 70800, Note_on_c, 1, 60, 80
1, 71040, Note_off_c, 1, 57, 64
1, 71040, Note_off_c, 1, 60, 64
1, 71040, Note_on_c, 1, 55, 80
1, 71040, Note_on_c, 1, 58, 80
1, 71280, Note_off_c, 1, 55, 64
1, 71280, Note_off_c, 1, 58, 64
1, 71280, Note_on_c, 1, 55, 80
1, 71280, Note_on_c, 1, 58, 80
1, 71520, Time_signature, 4, 2, 24, 8
1, 71520, Note_off_c, 1, 55, 64
1, 71520, Note_off_c, 1, 58, 64
1, 71520, Note_on_c, 1, 45, 80
1, 71520, Note_on_c, 1, 50, 80
1, 71520, Note_on_c, 1, 53, 80
1, 71520, Note_on_c, 1, 57, 80
1, 73440, Note_off_c, 1, 45, 64
1, 73440, Note_off_c, 1, 50, 64
1, 73440, Note_off_c, 1, 53, 64
1, 73440, Note_off_c, 1, 57, 64
1, 73440, End_track
0, 0, End_of_file
